<!-- home -->
<svg xmlns="http://www.w3.org/2000/svg" viewBox="0 0 24 24" width="48" height="48" color="#0c404c" fill="none">
    <path d="M9.06165 4.82633L3.23911 9.92134C2.7398 10.3583 3.07458 11.1343 3.76238 11.1343C4.18259 11.1343 4.52324 11.4489 4.52324 11.8371V15.0806C4.52324 17.871 4.52324 19.2662 5.46176 20.1331C6.40029 21 7.91082 21 10.9319 21H13.0681C16.0892 21 17.5997 21 18.5382 20.1331C19.4768 19.2662 19.4768 17.871 19.4768 15.0806V11.8371C19.4768 11.4489 19.8174 11.1343 20.2376 11.1343C20.9254 11.1343 21.2602 10.3583 20.7609 9.92134L14.9383 4.82633C13.5469 3.60878 12.8512 3 12 3C11.1488 3 10.4531 3.60878 9.06165 4.82633Z" stroke="currentColor" stroke-width="1.5" stroke-linecap="round" stroke-linejoin="round" />
    <path d="M12 16H12.009" stroke="currentColor" stroke-width="2" stroke-linecap="round" stroke-linejoin="round" />
</svg>

<!-- sms -->
<svg xmlns="http://www.w3.org/2000/svg" viewBox="0 0 24 24" width="48" height="48" color="#0c404c" fill="none">
    <path d="M2 6L8.91302 9.91697C11.4616 11.361 12.5384 11.361 15.087 9.91697L22 6" stroke="currentColor" stroke-width="1.5" stroke-linejoin="round" />
    <path d="M2.01577 13.4756C2.08114 16.5412 2.11383 18.0739 3.24496 19.2094C4.37608 20.3448 5.95033 20.3843 9.09883 20.4634C11.0393 20.5122 12.9607 20.5122 14.9012 20.4634C18.0497 20.3843 19.6239 20.3448 20.7551 19.2094C21.8862 18.0739 21.9189 16.5412 21.9842 13.4756C22.0053 12.4899 22.0053 11.5101 21.9842 10.5244C21.9189 7.45886 21.8862 5.92609 20.7551 4.79066C19.6239 3.65523 18.0497 3.61568 14.9012 3.53657C12.9607 3.48781 11.0393 3.48781 9.09882 3.53656C5.95033 3.61566 4.37608 3.65521 3.24495 4.79065C2.11382 5.92608 2.08114 7.45885 2.01576 10.5244C1.99474 11.5101 1.99475 12.4899 2.01577 13.4756Z" stroke="currentColor" stroke-width="1.5" stroke-linejoin="round" />
</svg>
<svg xmlns="http://www.w3.org/2000/svg" viewBox="0 0 24 24" width="48" height="48" color="#0c404c" fill="none">
    <path d="M22 11.5667C22 16.8499 17.5222 21.1334 12 21.1334C11.3507 21.1343 10.7032 21.0742 10.0654 20.9545C9.60633 20.8682 9.37678 20.8251 9.21653 20.8496C9.05627 20.8741 8.82918 20.9948 8.37499 21.2364C7.09014 21.9197 5.59195 22.161 4.15111 21.893C4.69874 21.2194 5.07275 20.4112 5.23778 19.5448C5.33778 19.0148 5.09 18.5 4.71889 18.1231C3.03333 16.4115 2 14.1051 2 11.5667C2 6.28357 6.47778 2 12 2C17.5222 2 22 6.28357 22 11.5667Z" stroke="currentColor" stroke-width="1.5" stroke-linejoin="round" />
    <path d="M11.9955 12H12.0045M15.991 12H16M8 12H8.00897" stroke="currentColor" stroke-width="2" stroke-linecap="round" stroke-linejoin="round" />
</svg>
<svg xmlns="http://www.w3.org/2000/svg" viewBox="0 0 24 24" width="48" height="48" color="#0c404c" fill="none">
    <path d="M22 11.5667C22 16.8499 17.5222 21.1334 12 21.1334C11.3507 21.1343 10.7032 21.0742 10.0654 20.9545C9.60633 20.8682 9.37678 20.8251 9.21653 20.8496C9.05627 20.8741 8.82918 20.9948 8.37499 21.2364C7.09014 21.9197 5.59195 22.161 4.15111 21.893C4.69874 21.2194 5.07275 20.4112 5.23778 19.5448C5.33778 19.0148 5.09 18.5 4.71889 18.1231C3.03333 16.4115 2 14.1051 2 11.5667C2 6.28357 6.47778 2 12 2C17.5222 2 22 6.28357 22 11.5667Z" stroke="currentColor" stroke-width="1.5" stroke-linejoin="round" />
    <path d="M11.9955 12H12.0045M15.991 12H16M8 12H8.00897" stroke="currentColor" stroke-width="2" stroke-linecap="round" stroke-linejoin="round" />
</svg>
<svg xmlns="http://www.w3.org/2000/svg" viewBox="0 0 24 24" width="48" height="48" color="#0c404c" fill="none">
    <path d="M2.01592 14.551C2.08186 17.5843 2.11484 19.1009 3.24611 20.2241C4.37738 21.3473 5.95183 21.3862 9.10072 21.4641C11.0393 21.512 12.9607 21.512 14.8993 21.4641C18.0482 21.3862 19.6226 21.3473 20.7539 20.2241C21.8852 19.1009 21.9181 17.5843 21.9841 14.551C22.0164 13.0649 21.9995 11.5934 21.9334 10.0921C21.8924 9.15964 21.8719 8.69341 21.6354 8.27984C21.3989 7.86628 20.9913 7.59935 20.176 7.0655L16.4152 4.60286C14.2742 3.20096 13.2038 2.5 12 2.5C10.7962 2.5 9.72577 3.20095 7.58483 4.60286L3.82397 7.0655C3.00869 7.59935 2.60106 7.86628 2.36459 8.27984C2.12812 8.69341 2.1076 9.15965 2.06656 10.0921C2.00049 11.5934 1.98361 13.0649 2.01592 14.551Z" stroke="currentColor" stroke-width="1.5" stroke-linejoin="round" />
    <path d="M2 9.5L6.26537 12.5896C6.73556 12.9302 7.16587 13.2419 7.564 13.5247C8.6401 14.2891 9.41661 14.5 10.7362 14.5H13.2638C14.5834 14.5 15.3599 14.2891 16.436 13.5247C16.8341 13.2419 17.2644 12.9302 17.7346 12.5896L22 9.5" stroke="currentColor" stroke-width="1.5" stroke-linejoin="round" />
</svg>
<svg xmlns="http://www.w3.org/2000/svg" viewBox="0 0 24 24" width="48" height="48" color="#0c404c" fill="none">
    <path d="M14.1706 20.8905C18.3536 20.6125 21.6856 17.2332 21.9598 12.9909C22.0134 12.1607 22.0134 11.3009 21.9598 10.4707C21.6856 6.22838 18.3536 2.84913 14.1706 2.57107C12.7435 2.47621 11.2536 2.47641 9.8294 2.57107C5.64639 2.84913 2.31441 6.22838 2.04024 10.4707C1.98659 11.3009 1.98659 12.1607 2.04024 12.9909C2.1401 14.536 2.82343 15.9666 3.62791 17.1746C4.09501 18.0203 3.78674 19.0758 3.30021 19.9978C2.94941 20.6626 2.77401 20.995 2.91484 21.2351C3.05568 21.4752 3.37026 21.4829 3.99943 21.4982C5.24367 21.5285 6.08268 21.1757 6.74868 20.6846C7.1264 20.4061 7.31527 20.2668 7.44544 20.2508C7.5756 20.2348 7.83177 20.3403 8.34401 20.5513C8.8044 20.7409 9.33896 20.8579 9.8294 20.8905C11.2536 20.9852 12.7435 20.9854 14.1706 20.8905Z" stroke="currentColor" stroke-width="1.5" stroke-linejoin="round" />
    <path d="M11.9953 12H12.0042M15.9908 12H15.9998M7.99976 12H8.00873" stroke="currentColor" stroke-width="2" stroke-linecap="round" stroke-linejoin="round" />
</svg>

<!-- search -->
<svg xmlns="http://www.w3.org/2000/svg" viewBox="0 0 24 24" width="48" height="48" color="#0c404c" fill="none">
    <path d="M17.5 17.5L22 22" stroke="currentColor" stroke-width="1.5" stroke-linecap="round" stroke-linejoin="round" />
    <path d="M20 11C20 6.02944 15.9706 2 11 2C6.02944 2 2 6.02944 2 11C2 15.9706 6.02944 20 11 20C15.9706 20 20 15.9706 20 11Z" stroke="currentColor" stroke-width="1.5" stroke-linejoin="round" />
</svg>

<!-- sun -->
<svg xmlns="http://www.w3.org/2000/svg" viewBox="0 0 24 24" width="48" height="48" color="#0c404c" fill="none">
    <path d="M17 12C17 14.7614 14.7614 17 12 17C9.23858 17 7 14.7614 7 12C7 9.23858 9.23858 7 12 7C14.7614 7 17 9.23858 17 12Z" stroke="currentColor" stroke-width="1.5" />
    <path d="M12 2V3.5M12 20.5V22M19.0708 19.0713L18.0101 18.0106M5.98926 5.98926L4.9286 4.9286M22 12H20.5M3.5 12H2M19.0713 4.92871L18.0106 5.98937M5.98975 18.0107L4.92909 19.0714" stroke="currentColor" stroke-width="1.5" stroke-linecap="round" />
</svg>
<svg xmlns="http://www.w3.org/2000/svg" viewBox="0 0 24 24" width="48" height="48" color="#0c404c" fill="none">
    <path d="M17 12C17 14.7614 14.7614 17 12 17C9.23858 17 7 14.7614 7 12C7 9.23858 9.23858 7 12 7C14.7614 7 17 9.23858 17 12Z" stroke="currentColor" stroke-width="1.5" />
    <path d="M11.9955 3H12.0045M11.9961 21H12.0051M18.3588 5.63599H18.3678M5.63409 18.364H5.64307M5.63409 5.63647H5.64307M18.3582 18.3645H18.3672M20.991 12.0006H21M3 12.0006H3.00898" stroke="currentColor" stroke-width="2" stroke-linecap="round" stroke-linejoin="round" />
</svg>

<!-- moon -->
<svg xmlns="http://www.w3.org/2000/svg" viewBox="0 0 24 24" width="48" height="48" color="#0c404c" fill="none">
    <path d="M21.5 14.0784C20.3003 14.7189 18.9301 15.0821 17.4751 15.0821C12.7491 15.0821 8.91792 11.2509 8.91792 6.52485C8.91792 5.06986 9.28105 3.69968 9.92163 2.5C5.66765 3.49698 2.5 7.31513 2.5 11.8731C2.5 17.1899 6.8101 21.5 12.1269 21.5C16.6849 21.5 20.503 18.3324 21.5 14.0784Z" stroke="currentColor" stroke-width="1.5" stroke-linecap="round" stroke-linejoin="round" />
</svg>
<svg xmlns="http://www.w3.org/2000/svg" viewBox="0 0 24 24" width="48" height="48" color="#0c404c" fill="none">
    <path d="M19.5483 18C20.7476 16.9645 21.5819 15.6272 22 14.1756C19.5473 14.4746 17.0369 13.3432 15.7234 11.1113C14.4099 8.87928 14.6664 6.1807 16.1567 4.2463C14.1701 3.75234 11.9929 3.98823 10.0779 5.07295C7.30713 6.64236 5.83056 9.56635 6.0155 12.5" stroke="currentColor" stroke-width="1.5" stroke-linecap="round" stroke-linejoin="round" />
    <path d="M2 15.3739C3.13649 16.1865 4.59053 16.1865 5.72702 15.3739C6.41225 14.8754 7.31476 14.8754 7.99999 15.3739C9.13648 16.1865 10.6072 16.2049 11.727 15.3924M17 19.6352C15.8635 18.8226 14.4095 18.8226 13.273 19.6352C12.5877 20.1338 11.6685 20.1153 10.9833 19.6167C9.8468 18.8042 8.39277 18.8042 7.27299 19.6167C6.57104 20.1153 5.68524 20.1153 5 19.6167" stroke="currentColor" stroke-width="1.5" stroke-linecap="round" />
</svg>


<!-- log out -->
<svg xmlns="http://www.w3.org/2000/svg" viewBox="0 0 24 24" width="48" height="48" color="#0c404c" fill="none">
    <path d="M11 3L10.3374 3.23384C7.75867 4.144 6.46928 4.59908 5.73464 5.63742C5 6.67576 5 8.0431 5 10.7778V13.2222C5 15.9569 5 17.3242 5.73464 18.3626C6.46928 19.4009 7.75867 19.856 10.3374 20.7662L11 21" stroke="currentColor" stroke-width="1.5" stroke-linecap="round" />
    <path d="M21 12L11 12M21 12C21 11.2998 19.0057 9.99153 18.5 9.5M21 12C21 12.7002 19.0057 14.0085 18.5 14.5" stroke="currentColor" stroke-width="1.5" stroke-linecap="round" stroke-linejoin="round" />
</svg>
<svg xmlns="http://www.w3.org/2000/svg" viewBox="0 0 24 24" width="48" height="48" color="#0c404c" fill="none">
    <path d="M17 4.5C17 5.32843 16.3284 6 15.5 6C14.6716 6 14 5.32843 14 4.5C14 3.67157 14.6716 3 15.5 3C16.3284 3 17 3.67157 17 4.5Z" stroke="currentColor" stroke-width="1.5" />
    <path d="M15 20.9999L14.3359 18.384C14.1161 17.5182 13.6615 16.7276 13.0207 16.0965L11.5 14.599M6 11.1526C7 9.18281 8.53767 8.04144 12 8.0005M12 8.0005C12.2186 7.99792 12.5444 7.99714 12.8698 7.9972C13.3747 7.99728 13.6271 7.99732 13.8282 8.09128C14.0293 8.18524 14.2356 8.4317 14.6482 8.92463C14.7664 9.06586 14.8878 9.1924 15 9.27657M12 8.0005L10.7309 9.95871C10.0332 11.0353 9.68429 11.5736 9.67069 12.1388C9.66463 12.3906 9.70617 12.6412 9.79313 12.8775C9.98834 13.4081 10.4922 13.8051 11.5 14.599M15 9.27657C16.1547 10.1425 17.9627 10.4912 20 8.19827M15 9.27657L11.5 14.599" stroke="currentColor" stroke-width="1.5" stroke-linecap="round" stroke-linejoin="round" />
    <path d="M4 17.7303L4.67822 17.8916C6.40663 18.3028 8.20324 17.5164 9 16" stroke="currentColor" stroke-width="1.5" stroke-linecap="round" stroke-linejoin="round" />
</svg>


<!-- book -->
<svg xmlns="http://www.w3.org/2000/svg" viewBox="0 0 24 24" width="48" height="48" color="#0c404c" fill="none">
    <path d="M20.5 16.9286V10C20.5 6.22876 20.5 4.34315 19.3284 3.17157C18.1569 2 16.2712 2 12.5 2H11.5C7.72876 2 5.84315 2 4.67157 3.17157C3.5 4.34315 3.5 6.22876 3.5 10V19.5" stroke="currentColor" stroke-width="1.5" stroke-linecap="round" />
    <path d="M20.5 17H6C4.61929 17 3.5 18.1193 3.5 19.5C3.5 20.8807 4.61929 22 6 22H20.5" stroke="currentColor" stroke-width="1.5" stroke-linecap="round" />
    <path d="M20.5 22C19.1193 22 18 20.8807 18 19.5C18 18.1193 19.1193 17 20.5 17" stroke="currentColor" stroke-width="1.5" stroke-linecap="round" />
    <path d="M15 7L9 7" stroke="currentColor" stroke-width="1.5" stroke-linecap="round" stroke-linejoin="round" />
    <path d="M12 11L9 11" stroke="currentColor" stroke-width="1.5" stroke-linecap="round" stroke-linejoin="round" />
</svg>
<svg xmlns="http://www.w3.org/2000/svg" viewBox="0 0 24 24" width="48" height="48" color="#0c404c" fill="none">
    <path d="M20 22.0001H6.5C5.11929 22.0001 4 20.8808 4 19.5001M4 19.5001V10.6837C4 7.69913 4 6.20682 4.75662 5.15857C5.00717 4.81144 5.31183 4.50679 5.65895 4.25623C6.70721 3.49961 8.19952 3.49961 11.1841 3.49961C12.1605 3.49961 13.3496 3.55106 14.3358 3.5644C15.235 3.57656 15.6846 3.58265 16.5222 3.43464C17.3597 3.28663 17.4492 3.2526 17.6282 3.18454C18.3982 2.89176 19.1272 2.43641 20 2V11.5001C20 13.3639 20 14.2958 19.6955 15.0309C19.2895 16.011 18.5108 16.7897 17.5307 17.1957C16.7956 17.5001 15.8638 17.5001 14 17.5001H6C4.89543 17.5001 4 18.3956 4 19.5001Z" stroke="currentColor" stroke-width="1.5" stroke-linecap="round" stroke-linejoin="round" />
    <path d="M18 17L18 22" stroke="currentColor" stroke-width="1.5" stroke-linejoin="round" />
    <path d="M8 4L8 8" stroke="currentColor" stroke-width="1.5" stroke-linecap="round" stroke-linejoin="round" />
</svg>

<!-- copy -->
<svg xmlns="http://www.w3.org/2000/svg" viewBox="0 0 24 24" width="48" height="48" color="#0c404c" fill="none">
    <path d="M9.87868 20.1213C10.7574 21 12.1716 21 15 21C17.8284 21 19.2426 21 20.1213 20.1213C21 19.2426 21 17.8284 21 15C21 12.1716 21 10.7574 20.1213 9.87868C19.2426 9 17.8284 9 15 9C12.1716 9 10.7574 9 9.87868 9.87868C9 10.7574 9 12.1716 9 15C9 17.8284 9 19.2426 9.87868 20.1213Z" stroke="currentColor" stroke-width="1.5" stroke-linecap="round" stroke-linejoin="round" />
    <path d="M17.9239 9C17.828 8.02491 17.6112 7.36857 17.1213 6.87868C16.2426 6 14.8284 6 12 6C9.17157 6 7.75736 6 6.87868 6.87868C6 7.75736 6 9.17157 6 12C6 14.8284 6 16.2426 6.87868 17.1213C7.36857 17.6112 8.02491 17.828 9 17.9239" stroke="currentColor" stroke-width="1.5" stroke-linecap="round" stroke-linejoin="round" />
    <path d="M14.9239 6C14.828 5.02491 14.6112 4.36857 14.1213 3.87868C13.2426 3 11.8284 3 9 3C6.17157 3 4.75736 3 3.87868 3.87868C3 4.75736 3 6.17157 3 9C3 11.8284 3 13.2426 3.87868 14.1213C4.36857 14.6112 5.02491 14.828 6 14.9239" stroke="currentColor" stroke-width="1.5" stroke-linecap="round" stroke-linejoin="round" />
</svg>

<!-- download -->
<svg xmlns="http://www.w3.org/2000/svg" viewBox="0 0 24 24" width="48" height="48" color="#0c404c" fill="none">
    <path d="M6 19.9985H17.9997" stroke="currentColor" stroke-width="1.5" stroke-linecap="round" stroke-linejoin="round" />
    <path d="M11.996 4.00195V11.53M14.5055 14.5899L15.9502 12.6384C16.2907 12.1784 15.9594 11.53 15.3839 11.53H8.67439C8.10419 11.53 7.77156 12.1679 8.10132 12.6291L9.50342 14.5899L11.444 16.9564C11.7237 17.2976 12.2484 17.2996 12.5307 16.9606L14.5055 14.5899Z" stroke="currentColor" stroke-width="1.5" stroke-linecap="round" stroke-linejoin="round" />
</svg>
<svg xmlns="http://www.w3.org/2000/svg" viewBox="0 0 24 24" width="48" height="48" color="#0c404c" fill="none">
    <path d="M12.5 2H12.7727C16.0339 2 17.6645 2 18.7969 2.79784C19.1214 3.02643 19.4094 3.29752 19.6523 3.60289C20.5 4.66867 20.5 6.20336 20.5 9.27273V11.8182C20.5 14.7814 20.5 16.2629 20.0311 17.4462C19.2772 19.3486 17.6829 20.8491 15.6616 21.5586C14.4044 22 12.8302 22 9.68182 22C7.88275 22 6.98322 22 6.26478 21.7478C5.10979 21.3424 4.19875 20.4849 3.76796 19.3979C3.5 18.7217 3.5 17.8751 3.5 16.1818V12" stroke="currentColor" stroke-width="1.5" stroke-linecap="round" stroke-linejoin="round" />
    <path d="M20.5 12C20.5 13.8409 19.0076 15.3333 17.1667 15.3333C16.5009 15.3333 15.716 15.2167 15.0686 15.3901C14.4935 15.5442 14.0442 15.9935 13.8901 16.5686C13.7167 17.216 13.8333 18.0009 13.8333 18.6667C13.8333 20.5076 12.3409 22 10.5 22" stroke="currentColor" stroke-width="1.5" stroke-linecap="round" stroke-linejoin="round" />
    <path d="M4.5 7.5C4.99153 8.0057 6.29977 10 7 10M9.5 7.5C9.00847 8.0057 7.70023 10 7 10M7 10L7 2" stroke="currentColor" stroke-width="1.5" stroke-linecap="round" stroke-linejoin="round" />
</svg>

<!-- ok -->
<svg xmlns="http://www.w3.org/2000/svg" viewBox="0 0 24 24" width="48" height="48" color="#0c404c" fill="none">
    <path d="M2.5 12C2.5 7.52166 2.5 5.28249 3.89124 3.89124C5.28249 2.5 7.52166 2.5 12 2.5C16.4783 2.5 18.7175 2.5 20.1088 3.89124C21.5 5.28249 21.5 7.52166 21.5 12C21.5 16.4783 21.5 18.7175 20.1088 20.1088C18.7175 21.5 16.4783 21.5 12 21.5C7.52166 21.5 5.28249 21.5 3.89124 20.1088C2.5 18.7175 2.5 16.4783 2.5 12Z" stroke="currentColor" stroke-width="1.5" />
    <path d="M17 10C17 10 13.3176 14 12 14C10.6824 14 7 10 7 10" stroke="currentColor" stroke-width="1.5" stroke-linecap="round" stroke-linejoin="round" />
</svg>
<svg xmlns="http://www.w3.org/2000/svg" viewBox="0 0 24 24" width="48" height="48" color="#0c404c" fill="none">
    <path d="M18.9905 19H19M18.9905 19C18.3678 19.6175 17.2393 19.4637 16.4479 19.4637C15.4765 19.4637 15.0087 19.6537 14.3154 20.347C13.7251 20.9374 12.9337 22 12 22C11.0663 22 10.2749 20.9374 9.68457 20.347C8.99128 19.6537 8.52349 19.4637 7.55206 19.4637C6.76068 19.4637 5.63218 19.6175 5.00949 19C4.38181 18.3776 4.53628 17.2444 4.53628 16.4479C4.53628 15.4414 4.31616 14.9786 3.59938 14.2618C2.53314 13.1956 2.00002 12.6624 2 12C2.00001 11.3375 2.53312 10.8044 3.59935 9.73817C4.2392 9.09832 4.53628 8.46428 4.53628 7.55206C4.53628 6.76065 4.38249 5.63214 5 5.00944C5.62243 4.38178 6.7556 4.53626 7.55208 4.53626C8.46427 4.53626 9.09832 4.2392 9.73815 3.59937C10.8044 2.53312 11.3375 2 12 2C12.6625 2 13.1956 2.53312 14.2618 3.59937C14.9015 4.23907 15.5355 4.53626 16.4479 4.53626C17.2393 4.53626 18.3679 4.38247 18.9906 5C19.6182 5.62243 19.4637 6.75559 19.4637 7.55206C19.4637 8.55858 19.6839 9.02137 20.4006 9.73817C21.4669 10.8044 22 11.3375 22 12C22 12.6624 21.4669 13.1956 20.4006 14.2618C19.6838 14.9786 19.4637 15.4414 19.4637 16.4479C19.4637 17.2444 19.6182 18.3776 18.9905 19Z" stroke="currentColor" stroke-width="1.5" />
    <path d="M9 12.8929C9 12.8929 10.2 13.5447 10.8 14.5C10.8 14.5 12.6 10.75 15 9.5" stroke="currentColor" stroke-width="1.5" stroke-linecap="round" stroke-linejoin="round" />
</svg>
<svg xmlns="http://www.w3.org/2000/svg" viewBox="0 0 24 24" width="48" height="48" color="#0c404c" fill="none">
    <path d="M18.9905 19H19M18.9905 19C18.3678 19.6175 17.2393 19.4637 16.4479 19.4637C15.4765 19.4637 15.0087 19.6537 14.3154 20.347C13.7251 20.9374 12.9337 22 12 22C11.0663 22 10.2749 20.9374 9.68457 20.347C8.99128 19.6537 8.52349 19.4637 7.55206 19.4637C6.76068 19.4637 5.63218 19.6175 5.00949 19C4.38181 18.3776 4.53628 17.2444 4.53628 16.4479C4.53628 15.4414 4.31616 14.9786 3.59938 14.2618C2.53314 13.1956 2.00002 12.6624 2 12C2.00001 11.3375 2.53312 10.8044 3.59935 9.73817C4.2392 9.09832 4.53628 8.46428 4.53628 7.55206C4.53628 6.76065 4.38249 5.63214 5 5.00944C5.62243 4.38178 6.7556 4.53626 7.55208 4.53626C8.46427 4.53626 9.09832 4.2392 9.73815 3.59937C10.8044 2.53312 11.3375 2 12 2C12.6625 2 13.1956 2.53312 14.2618 3.59937C14.9015 4.23907 15.5355 4.53626 16.4479 4.53626C17.2393 4.53626 18.3679 4.38247 18.9906 5C19.6182 5.62243 19.4637 6.75559 19.4637 7.55206C19.4637 8.55858 19.6839 9.02137 20.4006 9.73817C21.4669 10.8044 22 11.3375 22 12C22 12.6624 21.4669 13.1956 20.4006 14.2618C19.6838 14.9786 19.4637 15.4414 19.4637 16.4479C19.4637 17.2444 19.6182 18.3776 18.9905 19Z" stroke="currentColor" stroke-width="1.5" />
    <path d="M9 12.8929C9 12.8929 10.2 13.5447 10.8 14.5C10.8 14.5 12.6 10.75 15 9.5" stroke="currentColor" stroke-width="1.5" stroke-linecap="round" stroke-linejoin="round" />
</svg>
<svg xmlns="http://www.w3.org/2000/svg" viewBox="0 0 24 24" width="48" height="48" color="#0c404c" fill="none">
    <path d="M2.5 12C2.5 7.52166 2.5 5.28249 3.89124 3.89124C5.28249 2.5 7.52166 2.5 12 2.5C16.4783 2.5 18.7175 2.5 20.1088 3.89124C21.5 5.28249 21.5 7.52166 21.5 12C21.5 16.4783 21.5 18.7175 20.1088 20.1088C18.7175 21.5 16.4783 21.5 12 21.5C7.52166 21.5 5.28249 21.5 3.89124 20.1088C2.5 18.7175 2.5 16.4783 2.5 12Z" stroke="currentColor" stroke-width="1.5" />
    <path d="M8 12.5L10.5 15L16 9" stroke="currentColor" stroke-width="1.5" stroke-linecap="round" stroke-linejoin="round" />
</svg>


<svg xmlns="http://www.w3.org/2000/svg" viewBox="0 0 24 24" width="48" height="48" color="#0c404c" fill="none">
    <path d="M16.9017 6.12874C18 7.25748 18 9.07416 18 12.7075V14.2925C18 17.9258 18 19.7425 16.9017 20.8713C15.8033 22 14.0355 22 10.5 22C6.96447 22 5.1967 22 4.09835 20.8713C3 19.7425 3 17.9258 3 14.2925V12.7075C3 9.07416 3 7.25748 4.09835 6.12874C5.1967 5 6.96447 5 10.5 5C14.0355 5 15.8033 5 16.9017 6.12874Z" stroke="currentColor" stroke-width="1.5" stroke-linecap="round" stroke-linejoin="round" />
    <path d="M7.5 5.5V10.3693C7.5 11.3046 7.5 11.7722 7.78982 11.9396C8.35105 12.2638 9.4038 11.1823 9.90375 10.8567C10.1937 10.6678 10.3387 10.5734 10.5 10.5734C10.6613 10.5734 10.8063 10.6678 11.0962 10.8567C11.5962 11.1823 12.6489 12.2638 13.2102 11.9396C13.5 11.7722 13.5 11.3046 13.5 10.3693V5.5" stroke="currentColor" stroke-width="1.5" stroke-linecap="round" stroke-linejoin="round" />
    <path d="M9 2H11C15.714 2 18.0711 2 19.5355 3.46447C21 4.92893 21 7.28595 21 12V18" stroke="currentColor" stroke-width="1.5" stroke-linecap="round" stroke-linejoin="round" />
</svg>

<!-- qualite -->
<svg xmlns="http://www.w3.org/2000/svg" viewBox="0 0 24 24" width="48" height="48" color="#0c404c" fill="none">
    <path d="M2.5 12C2.5 7.52166 2.5 5.28249 3.89124 3.89124C5.28249 2.5 7.52166 2.5 12 2.5C16.4783 2.5 18.7175 2.5 20.1088 3.89124C21.5 5.28249 21.5 7.52166 21.5 12C21.5 16.4783 21.5 18.7175 20.1088 20.1088C18.7175 21.5 16.4783 21.5 12 21.5C7.52166 21.5 5.28249 21.5 3.89124 20.1088C2.5 18.7175 2.5 16.4783 2.5 12Z" stroke="currentColor" stroke-width="1.5" stroke-linejoin="round" />
    <path d="M10 15.5C10 16.3284 9.32843 17 8.5 17C7.67157 17 7 16.3284 7 15.5C7 14.6716 7.67157 14 8.5 14C9.32843 14 10 14.6716 10 15.5Z" stroke="currentColor" stroke-width="1.5" />
    <path d="M17 8.5C17 7.67157 16.3284 7 15.5 7C14.6716 7 14 7.67157 14 8.5C14 9.32843 14.6716 10 15.5 10C16.3284 10 17 9.32843 17 8.5Z" stroke="currentColor" stroke-width="1.5" />
    <path d="M8.5 14V7" stroke="currentColor" stroke-width="1.5" stroke-linecap="round" />
    <path d="M15.5 10V17" stroke="currentColor" stroke-width="1.5" stroke-linecap="round" />
</svg>
<svg xmlns="http://www.w3.org/2000/svg" viewBox="0 0 24 24" width="48" height="48" color="#0c404c" fill="none">
    <path d="M14.9805 7.01562C14.9805 7.01562 15.4805 7.51562 15.9805 8.51562C15.9805 8.51562 17.5687 6.01562 18.9805 5.51562" stroke="currentColor" stroke-width="1.5" stroke-linecap="round" stroke-linejoin="round" />
    <path d="M9.99485 2.02141C7.49638 1.91562 5.56612 2.20344 5.56612 2.20344C4.34727 2.29059 2.01146 2.97391 2.01148 6.9646C2.0115 10.9214 1.98564 15.7993 2.01148 17.744C2.01148 18.932 2.7471 21.7034 5.29326 21.8519C8.3881 22.0324 13.9627 22.0708 16.5205 21.8519C17.2051 21.8133 19.4846 21.2758 19.7731 18.7957C20.072 16.2264 20.0125 14.4407 20.0125 14.0157" stroke="currentColor" stroke-width="1.5" stroke-linecap="round" stroke-linejoin="round" />
    <path d="M21.9999 7.01562C21.9999 9.77705 19.7591 12.0156 16.995 12.0156C14.231 12.0156 11.9902 9.77705 11.9902 7.01562C11.9902 4.2542 14.231 2.01562 16.995 2.01562C19.7591 2.01562 21.9999 4.2542 21.9999 7.01562Z" stroke="currentColor" stroke-width="1.5" stroke-linecap="round" />
    <path d="M6.98047 13.0156H10.9805" stroke="currentColor" stroke-width="1.5" stroke-linecap="round" />
    <path d="M6.98047 17.0156H14.9805" stroke="currentColor" stroke-width="1.5" stroke-linecap="round" />
</svg>
<svg xmlns="http://www.w3.org/2000/svg" viewBox="0 0 24 24" width="48" height="48" color="#0c404c" fill="none">
    <path d="M21.8966 6.63081C22.2168 7.52828 21.7678 8.14274 20.8986 8.748C20.1973 9.23636 19.3039 9.76542 18.3572 10.6699C17.4291 11.5566 16.5234 12.6246 15.7184 13.6758C14.743 14.9496 13.8206 16.2801 13.0087 17.6655C12.7026 18.1902 12.1521 18.5078 11.5619 18.4999C10.9716 18.4919 10.4293 18.1597 10.1364 17.6267C9.38765 16.264 8.80986 15.7259 8.5443 15.5326C7.8075 14.9963 7 14.9035 7 13.7335C7 12.7762 7.74623 12.0002 8.66675 12.0002C9.32548 12.0266 9.92854 12.3088 10.4559 12.6927C10.7981 12.9418 11.1605 13.2711 11.5375 13.7047C11.9799 13.051 12.5131 12.2968 13.1107 11.5163C13.9787 10.3829 15.0032 9.16689 16.1019 8.11719C17.1819 7.08531 18.4306 6.11941 19.7542 5.60872C20.6172 5.27573 21.5764 5.73333 21.8966 6.63081Z" stroke="currentColor" stroke-width="1.5" stroke-linecap="round" stroke-linejoin="round" />
    <path d="M4.43961 12.0755C4.28117 12.0236 4.13796 11.9909 4.01252 11.9713C3.94995 11.9615 3.89226 11.955 3.83976 11.951L3.69887 11.9454C2.76061 11.9454 2 12.728 2 13.6933C2 14.5669 2.62294 15.2908 3.43675 15.4205C3.4652 15.4355 3.51137 15.4624 3.57407 15.5076C3.84474 15.7025 4.43367 16.2452 5.19686 17.6193C5.49542 18.1569 6.04811 18.4918 6.64983 18.4999C7.06202 18.5054 7.45518 18.3567 7.76226 18.0924M15 5.5C13.6509 6.015 12.3781 6.98904 11.2773 8.02963C10.8929 8.39299 10.5174 8.77611 10.1542 9.16884" stroke="currentColor" stroke-width="1.5" stroke-linecap="round" stroke-linejoin="round" />
</svg>
<svg xmlns="http://www.w3.org/2000/svg" viewBox="0 0 24 24" width="48" height="48" color="#0c404c" fill="none">
    <path d="M2.5 12C2.5 7.52166 2.5 5.28249 3.89124 3.89124C5.28249 2.5 7.52166 2.5 12 2.5C16.4783 2.5 18.7175 2.5 20.1088 3.89124C21.5 5.28249 21.5 7.52166 21.5 12C21.5 16.4783 21.5 18.7175 20.1088 20.1088C18.7175 21.5 16.4783 21.5 12 21.5C7.52166 21.5 5.28249 21.5 3.89124 20.1088C2.5 18.7175 2.5 16.4783 2.5 12Z" stroke="currentColor" stroke-width="1.5" stroke-linejoin="round" />
    <path d="M8.5 10C7.67157 10 7 9.32843 7 8.5C7 7.67157 7.67157 7 8.5 7C9.32843 7 10 7.67157 10 8.5C10 9.32843 9.32843 10 8.5 10Z" stroke="currentColor" stroke-width="1.5" />
    <path d="M15.5 17C16.3284 17 17 16.3284 17 15.5C17 14.6716 16.3284 14 15.5 14C14.6716 14 14 14.6716 14 15.5C14 16.3284 14.6716 17 15.5 17Z" stroke="currentColor" stroke-width="1.5" />
    <path d="M10 8.5L17 8.5" stroke="currentColor" stroke-width="1.5" stroke-linecap="round" />
    <path d="M14 15.5L7 15.5" stroke="currentColor" stroke-width="1.5" stroke-linecap="round" />
</svg>

<!-- clap -->
<svg xmlns="http://www.w3.org/2000/svg" viewBox="0 0 24 24" width="48" height="48" color="#0c404c" fill="none">
    <path d="M19.3961 10.8669C19.8629 10.417 20.6197 10.417 21.0865 10.8669C21.5532 11.3168 21.5532 12.0463 21.0865 12.4961L19.9595 13.5823M19.3961 10.8669L20.523 9.78079C20.9898 9.33089 20.9898 8.60146 20.523 8.15157C20.0562 7.70167 19.2994 7.70167 18.8326 8.15157L17.9876 8.96629M19.3961 10.8669L16.2971 13.8538M17.9876 8.96629C18.454 8.51637 18.4539 7.7872 17.9872 7.33742C17.5204 6.88753 16.7636 6.88753 16.2969 7.33742L11.5289 11.9327L11.5318 10.17C11.533 9.39664 10.8365 8.79601 10.0389 8.88262C9.42857 8.9489 8.94078 9.40462 8.85299 9.99057L8.29037 14.4426C8.18273 15.2944 7.62953 16.2341 7 16.8408M17.9876 8.96629L15.1703 11.6817M12.3528 22L13.009 21.3676C13.3086 21.0788 13.7156 20.9198 14.1384 20.8929C14.6272 20.8617 15.2733 20.7893 15.6643 20.621C16.3383 20.331 16.9506 19.7408 18.1752 18.5605L21.6499 15.2115C22.1167 14.7616 22.1167 14.0322 21.6499 13.5823C21.1831 13.1324 20.4263 13.1324 19.9595 13.5823M17.424 16.0261L19.9595 13.5823" stroke="currentColor" stroke-width="1.5" stroke-linecap="round" stroke-linejoin="round" />
    <path d="M13.4843 4.09738C13.9717 3.61746 13.9716 2.83968 13.4839 2.35992C12.996 1.88003 12.2051 1.88003 11.7172 2.35992L6.73328 7.26465L6.73711 5.38136C6.73842 4.55642 6.0105 3.91575 5.17686 4.00813C4.53899 4.07882 4.02919 4.56493 3.93744 5.18994L3.34861 9.94193C3.23611 10.8505 2.65795 11.8528 2 12.5M13.4843 4.09738L14.3675 3.22834C14.8553 2.74845 15.6463 2.74845 16.1341 3.22834C16.3781 3.46832 16.5 3.78285 16.5 4.09738M13.4843 4.09738L11 6.54112" stroke="currentColor" stroke-width="1.5" stroke-linecap="round" stroke-linejoin="round" />
</svg>
<svg xmlns="http://www.w3.org/2000/svg" viewBox="0 0 24 24" width="48" height="48" color="#0c404c" fill="none">
    <path d="M20.2946 16.5969L17.6443 19.3752C16.41 20.669 15.7928 21.316 15.1135 21.6339C14.0746 22.1201 12.8892 22.1221 11.8518 21.6393C11.1734 21.3236 10.5581 20.6787 9.32771 19.3889C8.68241 18.7124 8.35976 18.3742 8.12569 17.99C7.7686 17.4039 7.55631 16.7335 7.50792 16.0391C7.4762 15.5839 7.54154 15.1096 7.67222 14.1608L8.24806 9.98046C8.33654 9.33812 8.8282 8.83854 9.44338 8.76589C10.2474 8.67094 10.9494 9.32937 10.9481 10.1772L10.9452 12.1108L15.4678 7.36989C15.9383 6.8767 16.7011 6.8767 17.1716 7.36989C17.6421 7.86309 17.6421 8.66271 17.1716 9.1559M17.1716 9.1559L18.3075 7.96523C18.778 7.47204 19.5408 7.47204 20.0113 7.96523C20.4818 8.45842 20.4818 9.25804 20.0113 9.75123L18.8754 10.9419M17.1716 9.1559L14.6159 11.8349M18.8754 10.9419C19.3459 10.4487 20.1087 10.4487 20.5792 10.9419C21.0497 11.4351 21.0497 12.2347 20.5792 12.7279L19.4433 13.9186M18.8754 10.9419L16.3197 13.6209M19.7273 17.1929L21.1471 15.7046C21.6176 15.2114 21.6176 14.4118 21.1471 13.9186C20.6766 13.4254 19.9138 13.4254 19.4433 13.9186M19.4433 13.9186L18.0235 15.4069" stroke="currentColor" stroke-width="1.5" stroke-linecap="round" stroke-linejoin="round" />
    <path d="M12.2738 4.19379C12.7492 3.69193 12.7492 2.87825 12.2738 2.37639C11.7983 1.87454 11.0274 1.87454 10.552 2.37639L5.9816 7.20059L5.98452 5.23302C5.9858 4.37031 5.27637 3.7003 4.4639 3.79692C3.84223 3.87085 3.34538 4.37921 3.25596 5.03284L2.67404 9.2867C2.54198 10.2521 2.47595 10.7348 2.508 11.198C2.5569 11.9046 2.77143 12.5868 3.1323 13.1832C3.36884 13.5741 3.69489 13.9183 4.34701 14.6066C4.47803 14.7449 4.60216 14.8759 4.72018 15M12.2738 4.19379L13.4216 2.98219C13.8971 2.48033 14.668 2.48033 15.1434 2.98219C15.6189 3.48405 15.6189 4.29773 15.1434 4.79959M12.2738 4.19379L10.5114 6.054" stroke="currentColor" stroke-width="1.5" stroke-linecap="round" stroke-linejoin="round" />
</svg>

<svg xmlns="http://www.w3.org/2000/svg" viewBox="0 0 24 24" width="48" height="48" color="#0c404c" fill="none">
    <path d="M2 12.5C2 11.3954 2.89543 10.5 4 10.5C5.65685 10.5 7 11.8431 7 13.5V17.5C7 19.1569 5.65685 20.5 4 20.5C2.89543 20.5 2 19.6046 2 18.5V12.5Z" stroke="currentColor" stroke-width="1.5" stroke-linecap="round" stroke-linejoin="round" />
    <path d="M15.4787 7.80626L15.2124 8.66634C14.9942 9.37111 14.8851 9.72349 14.969 10.0018C15.0369 10.2269 15.1859 10.421 15.389 10.5487C15.64 10.7065 16.0197 10.7065 16.7791 10.7065H17.1831C19.7532 10.7065 21.0382 10.7065 21.6452 11.4673C21.7145 11.5542 21.7762 11.6467 21.8296 11.7437C22.2965 12.5921 21.7657 13.7351 20.704 16.0211C19.7297 18.1189 19.2425 19.1678 18.338 19.7852C18.2505 19.8449 18.1605 19.9013 18.0683 19.9541C17.116 20.5 15.9362 20.5 13.5764 20.5H13.0646C10.2057 20.5 8.77628 20.5 7.88814 19.6395C7 18.7789 7 17.3939 7 14.6239V13.6503C7 12.1946 7 11.4668 7.25834 10.8006C7.51668 10.1344 8.01135 9.58664 9.00069 8.49112L13.0921 3.96056C13.1947 3.84694 13.246 3.79012 13.2913 3.75075C13.7135 3.38328 14.3652 3.42464 14.7344 3.84235C14.774 3.8871 14.8172 3.94991 14.9036 4.07554C15.0388 4.27205 15.1064 4.37031 15.1654 4.46765C15.6928 5.33913 15.8524 6.37436 15.6108 7.35715C15.5838 7.46692 15.5488 7.5801 15.4787 7.80626Z" stroke="currentColor" stroke-width="1.5" stroke-linecap="round" stroke-linejoin="round" />
</svg>
<svg xmlns="http://www.w3.org/2000/svg" viewBox="0 0 24 24" width="48" height="48" color="#0c404c" fill="none">
    <path d="M2 11.5C2 12.6046 2.89543 13.5 4 13.5C5.65685 13.5 7 12.1569 7 10.5V6.5C7 4.84315 5.65685 3.5 4 3.5C2.89543 3.5 2 4.39543 2 5.5V11.5Z" stroke="currentColor" stroke-width="1.5" stroke-linecap="round" stroke-linejoin="round" />
    <path d="M15.4787 16.1937L15.2124 15.3337C14.9942 14.6289 14.8851 14.2765 14.969 13.9982C15.0369 13.7731 15.1859 13.579 15.389 13.4513C15.64 13.2935 16.0197 13.2935 16.7791 13.2935H17.1831C19.7532 13.2935 21.0382 13.2935 21.6452 12.5327C21.7145 12.4458 21.7762 12.3533 21.8296 12.2563C22.2965 11.4079 21.7657 10.2649 20.704 7.9789C19.7297 5.88111 19.2425 4.83222 18.338 4.21485C18.2505 4.15508 18.1605 4.0987 18.0683 4.04586C17.116 3.5 15.9362 3.5 13.5764 3.5H13.0646C10.2057 3.5 8.77628 3.5 7.88814 4.36053C7 5.22106 7 6.60607 7 9.37607V10.3497C7 11.8054 7 12.5332 7.25834 13.1994C7.51668 13.8656 8.01135 14.4134 9.00069 15.5089L13.0921 20.0394C13.1947 20.1531 13.246 20.2099 13.2913 20.2493C13.7135 20.6167 14.3652 20.5754 14.7344 20.1577C14.774 20.1129 14.8172 20.0501 14.9036 19.9245C15.0388 19.728 15.1064 19.6297 15.1654 19.5323C15.6928 18.6609 15.8524 17.6256 15.6108 16.6429C15.5838 16.5331 15.5488 16.4199 15.4787 16.1937Z" stroke="currentColor" stroke-width="1.5" stroke-linecap="round" stroke-linejoin="round" />
</svg>


<!-- hambu -->
<svg xmlns="http://www.w3.org/2000/svg" viewBox="0 0 24 24" width="48" height="48" color="#0c404c" fill="none">
    <path d="M4 5L20 5" stroke="currentColor" stroke-width="1.5" stroke-linecap="round" stroke-linejoin="round" />
    <path d="M4 12L20 12" stroke="currentColor" stroke-width="1.5" stroke-linecap="round" stroke-linejoin="round" />
    <path d="M4 19L20 19" stroke="currentColor" stroke-width="1.5" stroke-linecap="round" stroke-linejoin="round" />
</svg>
<svg xmlns="http://www.w3.org/2000/svg" viewBox="0 0 24 24" width="48" height="48" color="#0c404c" fill="none">
    <path d="M19.0005 4.99988L5.00045 18.9999M5.00045 4.99988L19.0005 18.9999" stroke="currentColor" stroke-width="1.5" stroke-linecap="round" stroke-linejoin="round" />
</svg>

<svg xmlns="http://www.w3.org/2000/svg" viewBox="0 0 24 24" width="48" height="48" color="#0c404c" fill="none">
    <path d="M19.0005 4.99988L5.00045 18.9999M5.00045 4.99988L19.0005 18.9999" stroke="currentColor" stroke-width="1.5" stroke-linecap="round" stroke-linejoin="round" />
</svg>

<!-- manager -->
<svg xmlns="http://www.w3.org/2000/svg" viewBox="0 0 24 24" width="48" height="48" color="#0c404c" fill="none">
    <path d="M20 22V17C20 15.1144 20 14.1716 19.4142 13.5858C18.8284 13 17.8856 13 16 13L12 22L8 13C6.11438 13 5.17157 13 4.58579 13.5858C4 14.1716 4 15.1144 4 17V22" stroke="currentColor" stroke-width="1.5" stroke-linecap="round" stroke-linejoin="round" />
    <path d="M12 15L11.5 19L12 20.5L12.5 19L12 15ZM12 15L11 13H13L12 15Z" stroke="currentColor" stroke-width="1.5" stroke-linecap="round" stroke-linejoin="round" />
    <path d="M15.5 6.5V5.5C15.5 3.567 13.933 2 12 2C10.067 2 8.5 3.567 8.5 5.5V6.5C8.5 8.433 10.067 10 12 10C13.933 10 15.5 8.433 15.5 6.5Z" stroke="currentColor" stroke-width="1.5" stroke-linecap="round" stroke-linejoin="round" />
</svg>

<svg xmlns="http://www.w3.org/2000/svg" viewBox="0 0 24 24" width="48" height="48" color="#0c404c" fill="none">
    <path d="M17.0235 3.03358L16.0689 2.77924C13.369 2.05986 12.019 1.70018 10.9555 2.31074C9.89196 2.9213 9.53023 4.26367 8.80678 6.94841L7.78366 10.7452C7.0602 13.4299 6.69848 14.7723 7.3125 15.8298C7.92652 16.8874 9.27651 17.247 11.9765 17.9664L12.9311 18.2208C15.631 18.9401 16.981 19.2998 18.0445 18.6893C19.108 18.0787 19.4698 16.7363 20.1932 14.0516L21.2163 10.2548C21.9398 7.57005 22.3015 6.22768 21.6875 5.17016C21.0735 4.11264 19.7235 3.75295 17.0235 3.03358Z" stroke="currentColor" stroke-width="1.5" />
    <path d="M16.8538 7.43306C16.8538 8.24714 16.1901 8.90709 15.3714 8.90709C14.5527 8.90709 13.889 8.24714 13.889 7.43306C13.889 6.61898 14.5527 5.95904 15.3714 5.95904C16.1901 5.95904 16.8538 6.61898 16.8538 7.43306Z" stroke="currentColor" stroke-width="1.5" />
    <path d="M12 20.9463L11.0477 21.2056C8.35403 21.9391 7.00722 22.3059 5.94619 21.6833C4.88517 21.0608 4.52429 19.6921 3.80253 16.9547L2.78182 13.0834C2.06006 10.346 1.69918 8.97731 2.31177 7.89904C2.84167 6.96631 4 7.00027 5.5 7.00015" stroke="currentColor" stroke-width="1.5" stroke-linecap="round" />
</svg>
<svg xmlns="http://www.w3.org/2000/svg" viewBox="0 0 24 24" width="48" height="48" color="#0c404c" fill="none">
    <path d="M3 4.5C3 3.67157 3.67157 3 4.5 3H6.5C7.32843 3 8 3.67157 8 4.5V6.5C8 7.32843 7.32843 8 6.5 8H4.5C3.67157 8 3 7.32843 3 6.5V4.5Z" stroke="currentColor" stroke-width="1.5" />
    <path d="M3 17.5C3 16.6716 3.67157 16 4.5 16H6.5C7.32843 16 8 16.6716 8 17.5V19.5C8 20.3284 7.32843 21 6.5 21H4.5C3.67157 21 3 20.3284 3 19.5V17.5Z" stroke="currentColor" stroke-width="1.5" />
    <path d="M7.99977 18.5H20.9998M15.9998 5.5H7.99977M16.3233 7.67649L7.64844 16.3513" stroke="currentColor" stroke-width="1.5" stroke-linecap="round" stroke-linejoin="round" />
    <path d="M16 4.5C16 3.67157 16.6716 3 17.5 3H19.5C20.3284 3 21 3.67157 21 4.5V6.5C21 7.32843 20.3284 8 19.5 8H17.5C16.6716 8 16 7.32843 16 6.5V4.5Z" stroke="currentColor" stroke-width="1.5" />
    <path d="M18 21L19.3883 20.0537C20.4628 19.3213 21 18.9551 21 18.5C21 18.0449 20.4628 17.6787 19.3883 16.9463L18 16" stroke="currentColor" stroke-width="1.5" stroke-linecap="round" stroke-linejoin="round" />
</svg>

<!-- cheked list -->
<svg xmlns="http://www.w3.org/2000/svg" viewBox="0 0 24 24" width="48" height="48" color="#0c404c" fill="none">
    <path d="M11 6L21 6" stroke="currentColor" stroke-width="1.5" stroke-linecap="round" />
    <path d="M11 12L21 12" stroke="currentColor" stroke-width="1.5" stroke-linecap="round" />
    <path d="M11 18L21 18" stroke="currentColor" stroke-width="1.5" stroke-linecap="round" />
    <path d="M3 7.39286C3 7.39286 4 8.04466 4.5 9C4.5 9 6 5.25 8 4" stroke="currentColor" stroke-width="1.5" stroke-linecap="round" stroke-linejoin="round" />
    <path d="M3 18.3929C3 18.3929 4 19.0447 4.5 20C4.5 20 6 16.25 8 15" stroke="currentColor" stroke-width="1.5" stroke-linecap="round" stroke-linejoin="round" />
</svg>


<!-- profile -->
<svg xmlns="http://www.w3.org/2000/svg" viewBox="0 0 24 24" width="48" height="48" color="#0c404c" fill="none">
    <path d="M6.57757 15.4816C5.1628 16.324 1.45336 18.0441 3.71266 20.1966C4.81631 21.248 6.04549 22 7.59087 22H16.4091C17.9545 22 19.1837 21.248 20.2873 20.1966C22.5466 18.0441 18.8372 16.324 17.4224 15.4816C14.1048 13.5061 9.89519 13.5061 6.57757 15.4816Z" stroke="currentColor" stroke-width="1.5" stroke-linecap="round" stroke-linejoin="round" />
    <path d="M16.5 6.5C16.5 8.98528 14.4853 11 12 11C9.51472 11 7.5 8.98528 7.5 6.5C7.5 4.01472 9.51472 2 12 2C14.4853 2 16.5 4.01472 16.5 6.5Z" stroke="currentColor" stroke-width="1.5" />
</svg>

<!-- triangles -->
<svg width="1em" height="1em" viewBox="0 0 24 24">
	<g fill="none" fill-rule="evenodd">
		<path d="M24 0v24H0V0zM12.593 23.258l-.011.002l-.071.035l-.02.004l-.014-.004l-.071-.035c-.01-.004-.019-.001-.024.005l-.004.01l-.017.428l.005.02l.01.013l.104.074l.015.004l.012-.004l.104-.074l.012-.016l.004-.017l-.017-.427c-.002-.01-.009-.017-.017-.018m.265-.113l-.013.002l-.185.093l-.01.01l-.003.011l.018.43l.005.012l.008.007l.201.093c.012.004.023 0 .029-.008l.004-.014l-.034-.614c-.003-.012-.01-.02-.02-.022m-.715.002a.023.023 0 0 0-.027.006l-.006.014l-.034.614c0 .012.007.02.017.024l.015-.002l.201-.093l.01-.008l.004-.011l.017-.43l-.003-.012l-.01-.01z" />
		<path fill="currentColor" d="M10.7 3.148a1.5 1.5 0 0 1 2.599 0l8.634 14.954a1.5 1.5 0 0 1-1.299 2.25H3.366a1.5 1.5 0 0 1-1.299-2.25l8.634-14.954Z" />
	</g>
</svg>

<!-- menu -->
<svg width="1em" height="1em" viewBox="0 0 24 24">
	<g fill="none" fill-rule="evenodd">
		<path d="M24 0v24H0V0zM12.593 23.258l-.011.002l-.071.035l-.02.004l-.014-.004l-.071-.035c-.01-.004-.019-.001-.024.005l-.004.01l-.017.428l.005.02l.01.013l.104.074l.015.004l.012-.004l.104-.074l.012-.016l.004-.017l-.017-.427c-.002-.01-.009-.017-.017-.018m.265-.113l-.013.002l-.185.093l-.01.01l-.003.011l.018.43l.005.012l.008.007l.201.093c.012.004.023 0 .029-.008l.004-.014l-.034-.614c-.003-.012-.01-.02-.02-.022m-.715.002a.023.023 0 0 0-.027.006l-.006.014l-.034.614c0 .012.007.02.017.024l.015-.002l.201-.093l.01-.008l.004-.011l.017-.43l-.003-.012l-.01-.01z" />
		<path fill="currentColor" d="M10.7 3.148a1.5 1.5 0 0 1 2.599 0l8.634 14.954a1.5 1.5 0 0 1-1.299 2.25H3.366a1.5 1.5 0 0 1-1.299-2.25l8.634-14.954Z" />
	</g>
</svg>
<svg xmlns="http://www.w3.org/2000/svg" width="1em" height="1em" viewBox="0 0 24 24">
	<g fill="none" fill-rule="evenodd">
		<path d="M24 0v24H0V0zM12.593 23.258l-.011.002l-.071.035l-.02.004l-.014-.004l-.071-.035c-.01-.004-.019-.001-.024.005l-.004.01l-.017.428l.005.02l.01.013l.104.074l.015.004l.012-.004l.104-.074l.012-.016l.004-.017l-.017-.427c-.002-.01-.009-.017-.017-.018m.265-.113l-.013.002l-.185.093l-.01.01l-.003.011l.018.43l.005.012l.008.007l.201.093c.012.004.023 0 .029-.008l.004-.014l-.034-.614c-.003-.012-.01-.02-.02-.022m-.715.002a.023.023 0 0 0-.027.006l-.006.014l-.034.614c0 .012.007.02.017.024l.015-.002l.201-.093l.01-.008l.004-.011l.017-.43l-.003-.012l-.01-.01z" />
		<path fill="currentColor" d="m12 14.122l5.303 5.303a1.5 1.5 0 0 0 2.122-2.122L14.12 12l5.304-5.303a1.5 1.5 0 1 0-2.122-2.121L12 9.879L6.697 4.576a1.5 1.5 0 1 0-2.122 2.12L9.88 12l-5.304 5.304a1.5 1.5 0 1 0 2.122 2.12z" />
	</g>
</svg>

<!-- socilas -->
<svg width="1em" height="1em" viewBox="0 0 24 24">
	<g fill="none">
		<path d="M24 0v24H0V0zM12.593 23.258l-.011.002l-.071.035l-.02.004l-.014-.004l-.071-.035c-.01-.004-.019-.001-.024.005l-.004.01l-.017.428l.005.02l.01.013l.104.074l.015.004l.012-.004l.104-.074l.012-.016l.004-.017l-.017-.427c-.002-.01-.009-.017-.017-.018m.265-.113l-.013.002l-.185.093l-.01.01l-.003.011l.018.43l.005.012l.008.007l.201.093c.012.004.023 0 .029-.008l.004-.014l-.034-.614c-.003-.012-.01-.02-.02-.022m-.715.002a.023.023 0 0 0-.027.006l-.006.014l-.034.614c0 .012.007.02.017.024l.015-.002l.201-.093l.01-.008l.004-.011l.017-.43l-.003-.012l-.01-.01z" />
		<path fill="currentColor" d="M13.5 21.888C18.311 21.164 22 17.013 22 12c0-5.523-4.477-10-10-10S2 6.477 2 12c0 5.013 3.689 9.165 8.5 9.888V15H9a1.5 1.5 0 0 1 0-3h1.5v-2A3.5 3.5 0 0 1 14 6.5h.5a1.5 1.5 0 0 1 0 3H14a.5.5 0 0 0-.5.5v2H15a1.5 1.5 0 0 1 0 3h-1.5z" />
	</g>
</svg>
<svg width="1em" height="1em" viewBox="0 0 24 24">
	<g fill="none">
		<path d="M24 0v24H0V0zM12.593 23.258l-.011.002l-.071.035l-.02.004l-.014-.004l-.071-.035c-.01-.004-.019-.001-.024.005l-.004.01l-.017.428l.005.02l.01.013l.104.074l.015.004l.012-.004l.104-.074l.012-.016l.004-.017l-.017-.427c-.002-.01-.009-.017-.017-.018m.265-.113l-.013.002l-.185.093l-.01.01l-.003.011l.018.43l.005.012l.008.007l.201.093c.012.004.023 0 .029-.008l.004-.014l-.034-.614c-.003-.012-.01-.02-.02-.022m-.715.002a.023.023 0 0 0-.027.006l-.006.014l-.034.614c0 .012.007.02.017.024l.015-.002l.201-.093l.01-.008l.004-.011l.017-.43l-.003-.012l-.01-.01z" />
		<path fill="currentColor" d="M4.594 4.984a1 1 0 0 1 .941.429C7.011 7.572 8.783 8.47 10.75 8.674c.096-.841.323-1.672.75-2.404c.626-1.074 1.644-1.864 3.098-2.156c2.01-.404 3.54.324 4.427 1.215l1.792-.335a1 1 0 0 1 1.053 1.478l-1.72 3.022c.157 4.361-1.055 7.405-3.639 9.502c-1.37 1.112-3.332 1.743-5.485 1.938c-2.17.196-4.623-.041-7.061-.753a1 1 0 0 1 .007-1.922c1.226-.349 2.16-.65 3.003-1.177c-1.199-.636-2.082-1.468-2.707-2.416c-.868-1.318-1.19-2.788-1.254-4.113c-.064-1.325.127-2.553.329-3.438c.115-.505.249-1.011.434-1.495a1 1 0 0 1 .818-.636Z" />
	</g>
</svg>
<svg width="1em" height="1em" viewBox="0 0 24 24">
	<g fill="none">
		<path d="M24 0v24H0V0zM12.593 23.258l-.011.002l-.071.035l-.02.004l-.014-.004l-.071-.035c-.01-.004-.019-.001-.024.005l-.004.01l-.017.428l.005.02l.01.013l.104.074l.015.004l.012-.004l.104-.074l.012-.016l.004-.017l-.017-.427c-.002-.01-.009-.017-.017-.018m.265-.113l-.013.002l-.185.093l-.01.01l-.003.011l.018.43l.005.012l.008.007l.201.093c.012.004.023 0 .029-.008l.004-.014l-.034-.614c-.003-.012-.01-.02-.02-.022m-.715.002a.023.023 0 0 0-.027.006l-.006.014l-.034.614c0 .012.007.02.017.024l.015-.002l.201-.093l.01-.008l.004-.011l.017-.43l-.003-.012l-.01-.01z" />
		<path fill="currentColor" d="M12 2c5.523 0 10 4.477 10 10s-4.477 10-10 10a9.958 9.958 0 0 1-4.863-1.26l-.305-.178l-3.032.892a1.01 1.01 0 0 1-1.28-1.145l.026-.109l.892-3.032A9.958 9.958 0 0 1 2 12C2 6.477 6.477 2 12 2m0 2a8 8 0 0 0-6.759 12.282c.198.312.283.696.216 1.077l-.039.163l-.441 1.501l1.501-.441c.433-.128.883-.05 1.24.177A8 8 0 1 0 12 4M9.102 7.184a.695.695 0 0 1 .684.075c.504.368.904.862 1.248 1.344l.327.474l.153.225a.712.712 0 0 1-.046.864l-.075.076l-.924.686a.227.227 0 0 0-.067.291c.21.38.581.947 1.007 1.373c.427.426 1.02.822 1.426 1.055c.088.05.194.034.266-.031l.038-.045l.601-.915a.711.711 0 0 1 .973-.158l.543.379c.54.385 1.059.799 1.47 1.324a.696.696 0 0 1 .089.703c-.396.924-1.399 1.711-2.441 1.673l-.159-.01l-.191-.018a4.966 4.966 0 0 1-.108-.014l-.238-.04c-.924-.174-2.405-.698-3.94-2.232c-1.534-1.535-2.058-3.016-2.232-3.94l-.04-.238l-.025-.208l-.013-.175a3.76 3.76 0 0 1-.004-.075c-.038-1.044.753-2.047 1.678-2.443" />
	</g>
</svg>
<svg width="1em" height="1em" viewBox="0 0 24 24">
	<path fill="none" stroke="currentColor" stroke-linecap="round" stroke-linejoin="round" stroke-width="2" d="m4 4l11.733 16H20L8.267 4zm0 16l6.768-6.768m2.46-2.46L20 4" />
</svg>
<svg  width="1em" height="1em" viewBox="0 0 24 24">
	<g fill="none" stroke="currentColor" stroke-linecap="round" stroke-linejoin="round" stroke-width="2">
		<path d="M4 8a4 4 0 0 1 4-4h8a4 4 0 0 1 4 4v8a4 4 0 0 1-4 4H8a4 4 0 0 1-4-4z" />
		<path d="M9 12a3 3 0 1 0 6 0a3 3 0 1 0-6 0m7.5-4.5v.01" />
	</g>
</svg>

<!-- eye -->
<svg xmlns="http://www.w3.org/2000/svg" width="1em" height="1em" viewBox="0 0 24 24">
	<g fill="none" fill-rule="evenodd">
		<path d="M24 0v24H0V0zM12.593 23.258l-.011.002l-.071.035l-.02.004l-.014-.004l-.071-.035c-.01-.004-.019-.001-.024.005l-.004.01l-.017.428l.005.02l.01.013l.104.074l.015.004l.012-.004l.104-.074l.012-.016l.004-.017l-.017-.427c-.002-.01-.009-.017-.017-.018m.265-.113l-.013.002l-.185.093l-.01.01l-.003.011l.018.43l.005.012l.008.007l.201.093c.012.004.023 0 .029-.008l.004-.014l-.034-.614c-.003-.012-.01-.02-.02-.022m-.715.002a.023.023 0 0 0-.027.006l-.006.014l-.034.614c0 .012.007.02.017.024l.015-.002l.201-.093l.01-.008l.004-.011l.017-.43l-.003-.012l-.01-.01z" />
		<path fill="currentColor" d="m12 14.122l5.303 5.303a1.5 1.5 0 0 0 2.122-2.122L14.12 12l5.304-5.303a1.5 1.5 0 1 0-2.122-2.121L12 9.879L6.697 4.576a1.5 1.5 0 1 0-2.122 2.12L9.88 12l-5.304 5.304a1.5 1.5 0 1 0 2.122 2.12z" />
	</g>
</svg>

<svg xmlns="http://www.w3.org/2000/svg" width="1em" height="1em" viewBox="0 0 24 24">
	<g fill="none" fill-rule="evenodd">
		<path d="M24 0v24H0V0zM12.593 23.258l-.011.002l-.071.035l-.02.004l-.014-.004l-.071-.035c-.01-.004-.019-.001-.024.005l-.004.01l-.017.428l.005.02l.01.013l.104.074l.015.004l.012-.004l.104-.074l.012-.016l.004-.017l-.017-.427c-.002-.01-.009-.017-.017-.018m.265-.113l-.013.002l-.185.093l-.01.01l-.003.011l.018.43l.005.012l.008.007l.201.093c.012.004.023 0 .029-.008l.004-.014l-.034-.614c-.003-.012-.01-.02-.02-.022m-.715.002a.023.023 0 0 0-.027.006l-.006.014l-.034.614c0 .012.007.02.017.024l.015-.002l.201-.093l.01-.008l.004-.011l.017-.43l-.003-.012l-.01-.01z" />
		<path fill="currentColor" d="M4 12.001c.003-.016.017-.104.095-.277c.086-.191.225-.431.424-.708c.398-.553.993-1.192 1.745-1.798C7.777 7.996 9.812 7 12 7c2.188 0 4.223.996 5.736 2.216c.752.606 1.347 1.245 1.745 1.798c.2.277.338.517.424.708c.078.173.092.261.095.277V12c-.003.016-.017.104-.095.277a4.251 4.251 0 0 1-.424.708c-.398.553-.993 1.192-1.745 1.798C16.224 16.004 14.189 17 12 17c-2.188 0-4.223-.996-5.736-2.216c-.752-.606-1.347-1.245-1.745-1.798a4.226 4.226 0 0 1-.424-.708A1.115 1.115 0 0 1 4 12.001M12 5C9.217 5 6.752 6.254 5.009 7.659c-.877.706-1.6 1.474-2.113 2.187a6.157 6.157 0 0 0-.625 1.055C2.123 11.23 2 11.611 2 12c0 .388.123.771.27 1.099c.155.342.37.7.626 1.055c.513.713 1.236 1.48 2.113 2.187C6.752 17.746 9.217 19 12 19c2.783 0 5.248-1.254 6.991-2.659c.877-.706 1.6-1.474 2.113-2.187c.257-.356.471-.713.625-1.055c.148-.328.271-.71.271-1.099c0-.388-.123-.771-.27-1.099a6.197 6.197 0 0 0-.626-1.055c-.513-.713-1.236-1.48-2.113-2.187C17.248 6.254 14.783 5 12 5m-1 7a1 1 0 1 1 2 0a1 1 0 0 1-2 0m1-3a3 3 0 1 0 0 6a3 3 0 0 0 0-6" />
	</g>
</svg>
